<svg width="846" height="185" viewBox="0 0 846 185" fill="none" xmlns="http://www.w3.org/2000/svg">
<path d="M54.1823 182H0.915217L60.9294 0.181813H128.401L188.415 182H135.148L95.3754 50.2528H93.955L54.1823 182ZM44.2391 110.267H144.381V147.199H44.2391V110.267ZM346.026 0.181813H395.387V116.659C395.387 130.509 392.073 142.494 385.444 152.614C378.874 162.676 369.7 170.459 357.923 175.963C346.145 181.408 332.473 184.131 316.907 184.131C301.223 184.131 287.492 181.408 275.714 175.963C263.936 170.459 254.762 162.676 248.192 152.614C241.682 142.494 238.427 130.509 238.427 116.659V0.181813H287.788V112.398C287.788 118.02 289.03 123.051 291.516 127.49C294.002 131.87 297.435 135.303 301.815 137.788C306.253 140.274 311.284 141.517 316.907 141.517C322.589 141.517 327.619 140.274 331.999 137.788C336.379 135.303 339.812 131.87 342.297 127.49C344.783 123.051 346.026 118.02 346.026 112.398V0.181813ZM608.662 0.181813V182H567.469L501.773 86.4744H500.707V182H451.347V0.181813H493.25L557.881 95.3523H559.301V0.181813H608.662ZM711.741 182H658.474L718.488 0.181813H785.96L845.974 182H792.707L752.934 50.2528H751.514L711.741 182ZM701.798 110.267H801.94V147.199H701.798V110.267Z" fill="url(#paint0_linear_4_35)"/>
<defs>
<linearGradient id="paint0_linear_4_35" x1="-99" y1="91.5" x2="946" y2="91.5" gradientUnits="userSpaceOnUse">
<stop stop-color="#F7F7F7"/>
<stop offset="1" stop-color="#575757"/>
</linearGradient>
</defs>
</svg>
